{
	"asset":{
		"generator":"Khronos glTF Blender I/O v4.5.49",
		"version":"2.0"
	},
	"scene":0,
	"scenes":[
		{
			"name":"Scene",
			"nodes":[
				0,
				1,
				2,
				3,
				4,
				5,
				6,
				7
			]
		}
	],
	"nodes":[
		{
			"mesh":0,
			"name":"Desk Main"
		},
		{
			"mesh":1,
			"name":"Top"
		},
		{
			"mesh":2,
			"name":"Drawers"
		},
		{
			"mesh":3,
			"name":"Handles"
		},
		{
			"mesh":4,
			"name":"Stands"
		},
		{
			"mesh":5,
			"name":"Paper"
		},
		{
			"mesh":6,
			"name":"PostIts"
		},
		{
			"mesh":7,
			"name":"PostItNoteSingle"
		}
	],
	"materials":[
		{
			"doubleSided":true,
			"name":"Material.004",
			"pbrMetallicRoughness":{
				"baseColorFactor":[
					0.39915308356285095,
					0.3514120578765869,
					0.21742188930511475,
					1
				],
				"metallicFactor":0
			}
		},
		{
			"doubleSided":true,
			"name":"Material.003",
			"pbrMetallicRoughness":{
				"baseColorFactor":[
					0.08502701669931412,
					0.05971847474575043,
					0.042331352829933167,
					1
				],
				"metallicFactor":0,
				"roughnessFactor":0.4603174328804016
			}
		},
		{
			"doubleSided":true,
			"name":"Material.002",
			"pbrMetallicRoughness":{
				"baseColorFactor":[
					0.05223463475704193,
					0.045533228665590286,
					0.04323921352624893,
					1
				],
				"metallicFactor":0.3730158805847168,
				"roughnessFactor":0.8571428656578064
			}
		},
		{
			"doubleSided":true,
			"name":"Material.001",
			"pbrMetallicRoughness":{
				"baseColorFactor":[
					0.800000011920929,
					0.800000011920929,
					0.800000011920929,
					1
				],
				"roughnessFactor":0.1031745970249176
			}
		},
		{
			"doubleSided":true,
			"name":"Material.007",
			"pbrMetallicRoughness":{
				"baseColorFactor":[
					0,
					0,
					0,
					1
				],
				"metallicFactor":0,
				"roughnessFactor":0.5
			}
		},
		{
			"doubleSided":true,
			"name":"Material.008",
			"pbrMetallicRoughness":{
				"baseColorFactor":[
					0,
					0,
					0,
					1
				],
				"metallicFactor":0,
				"roughnessFactor":0.5
			}
		},
		{
			"doubleSided":true,
			"name":"Material.005",
			"pbrMetallicRoughness":{
				"baseColorFactor":[
					0,
					0,
					0,
					1
				],
				"metallicFactor":0,
				"roughnessFactor":0.5
			}
		},
		{
			"doubleSided":true,
			"name":"Material.006",
			"pbrMetallicRoughness":{
				"baseColorFactor":[
					0,
					0,
					0,
					1
				],
				"metallicFactor":0,
				"roughnessFactor":0.5
			}
		},
		{
			"doubleSided":true,
			"name":"Material.009",
			"pbrMetallicRoughness":{
				"baseColorFactor":[
					0.742667555809021,
					0.8000785112380981,
					0.12820956110954285,
					1
				],
				"metallicFactor":0,
				"roughnessFactor":0.5
			}
		},
		{
			"doubleSided":true,
			"name":"Material.010",
			"pbrMetallicRoughness":{
				"baseColorFactor":[
					0.742667555809021,
					0.8000785112380981,
					0.12820956110954285,
					1
				],
				"metallicFactor":0,
				"roughnessFactor":0.5
			}
		}
	],
	"meshes":[
		{
			"name":"Plane",
			"primitives":[
				{
					"attributes":{
						"POSITION":0,
						"NORMAL":1,
						"TEXCOORD_0":2
					},
					"indices":3,
					"material":0
				}
			]
		},
		{
			"name":"Cube.003",
			"primitives":[
				{
					"attributes":{
						"POSITION":4,
						"NORMAL":5,
						"TEXCOORD_0":6
					},
					"indices":7,
					"material":1
				}
			]
		},
		{
			"name":"Cube.004",
			"primitives":[
				{
					"attributes":{
						"POSITION":8,
						"NORMAL":9,
						"TEXCOORD_0":10
					},
					"indices":11,
					"material":2
				},
				{
					"attributes":{
						"POSITION":12,
						"NORMAL":13,
						"TEXCOORD_0":14
					},
					"indices":15,
					"material":1
				}
			]
		},
		{
			"name":"Cylinder",
			"primitives":[
				{
					"attributes":{
						"POSITION":16,
						"NORMAL":17,
						"TEXCOORD_0":18
					},
					"indices":19,
					"material":3
				}
			]
		},
		{
			"name":"Circle.002",
			"primitives":[
				{
					"attributes":{
						"POSITION":20,
						"NORMAL":21,
						"TEXCOORD_0":22
					},
					"indices":23,
					"material":4
				},
				{
					"attributes":{
						"POSITION":24,
						"NORMAL":25,
						"TEXCOORD_0":26
					},
					"indices":23,
					"material":5
				},
				{
					"attributes":{
						"POSITION":27,
						"NORMAL":28,
						"TEXCOORD_0":29
					},
					"indices":23,
					"material":6
				},
				{
					"attributes":{
						"POSITION":30,
						"NORMAL":31,
						"TEXCOORD_0":32
					},
					"indices":23,
					"material":7
				}
			]
		},
		{
			"name":"Plane.002",
			"primitives":[
				{
					"attributes":{
						"POSITION":33,
						"NORMAL":34,
						"TEXCOORD_0":35
					},
					"indices":36
				}
			]
		},
		{
			"name":"Plane.004",
			"primitives":[
				{
					"attributes":{
						"POSITION":37,
						"NORMAL":38,
						"TEXCOORD_0":39
					},
					"indices":40,
					"material":8
				}
			]
		},
		{
			"name":"Plane.005",
			"primitives":[
				{
					"attributes":{
						"POSITION":41,
						"NORMAL":42,
						"TEXCOORD_0":43
					},
					"indices":44,
					"material":9
				}
			]
		}
	],
	"accessors":[
		{
			"bufferView":0,
			"componentType":5126,
			"count":104,
			"max":[
				1,
				1.0000001192092896,
				1.7999999523162842
			],
			"min":[
				-1,
				-0.600000262260437,
				-1.8000000715255737
			],
			"type":"VEC3"
		},
		{
			"bufferView":1,
			"componentType":5126,
			"count":104,
			"type":"VEC3"
		},
		{
			"bufferView":2,
			"componentType":5126,
			"count":104,
			"type":"VEC2"
		},
		{
			"bufferView":3,
			"componentType":5123,
			"count":582,
			"type":"SCALAR"
		},
		{
			"bufferView":4,
			"componentType":5126,
			"count":495,
			"max":[
				1.100000023841858,
				1.0674612522125244,
				1.899999976158142
			],
			"min":[
				-1.100000023841858,
				0.987461268901825,
				-1.899999976158142
			],
			"type":"VEC3"
		},
		{
			"bufferView":5,
			"componentType":5126,
			"count":495,
			"type":"VEC3"
		},
		{
			"bufferView":6,
			"componentType":5126,
			"count":495,
			"type":"VEC2"
		},
		{
			"bufferView":7,
			"componentType":5123,
			"count":2724,
			"type":"SCALAR"
		},
		{
			"bufferView":8,
			"componentType":5126,
			"count":613,
			"max":[
				0.9377588033676147,
				0.9065126180648804,
				1.7210935354232788
			],
			"min":[
				-0.8999999761581421,
				-0.4311178922653198,
				0.7210935354232788
			],
			"type":"VEC3"
		},
		{
			"bufferView":9,
			"componentType":5126,
			"count":613,
			"type":"VEC3"
		},
		{
			"bufferView":10,
			"componentType":5126,
			"count":613,
			"type":"VEC2"
		},
		{
			"bufferView":11,
			"componentType":5123,
			"count":2316,
			"type":"SCALAR"
		},
		{
			"bufferView":12,
			"componentType":5126,
			"count":900,
			"max":[
				0.953399121761322,
				0.9065126180648804,
				1.671093463897705
			],
			"min":[
				0.872035801410675,
				-0.3934873342514038,
				0.7710935473442078
			],
			"type":"VEC3"
		},
		{
			"bufferView":13,
			"componentType":5126,
			"count":900,
			"type":"VEC3"
		},
		{
			"bufferView":14,
			"componentType":5126,
			"count":900,
			"type":"VEC2"
		},
		{
			"bufferView":15,
			"componentType":5123,
			"count":2490,
			"type":"SCALAR"
		},
		{
			"bufferView":16,
			"componentType":5126,
			"count":1298,
			"max":[
				1.0431194305419922,
				0.6385158896446228,
				1.4295539855957031
			],
			"min":[
				0.9156863689422607,
				-0.08058416843414307,
				0.998589813709259
			],
			"type":"VEC3"
		},
		{
			"bufferView":17,
			"componentType":5126,
			"count":1298,
			"type":"VEC3"
		},
		{
			"bufferView":18,
			"componentType":5126,
			"count":1298,
			"type":"VEC2"
		},
		{
			"bufferView":19,
			"componentType":5123,
			"count":6840,
			"type":"SCALAR"
		},
		{
			"bufferView":20,
			"componentType":5126,
			"count":320,
			"max":[
				1.0023373365402222,
				-0.592006266117096,
				-1.690163493156433
			],
			"min":[
				0.8700889945030212,
				-0.641674280166626,
				-1.8224118947982788
			],
			"type":"VEC3"
		},
		{
			"bufferView":21,
			"componentType":5126,
			"count":320,
			"type":"VEC3"
		},
		{
			"bufferView":22,
			"componentType":5126,
			"count":320,
			"type":"VEC2"
		},
		{
			"bufferView":23,
			"componentType":5123,
			"count":1908,
			"type":"SCALAR"
		},
		{
			"bufferView":24,
			"componentType":5126,
			"count":320,
			"max":[
				-0.8953293561935425,
				-0.592006266117096,
				-1.690163493156433
			],
			"min":[
				-1.0275777578353882,
				-0.641674280166626,
				-1.8224118947982788
			],
			"type":"VEC3"
		},
		{
			"bufferView":25,
			"componentType":5126,
			"count":320,
			"type":"VEC3"
		},
		{
			"bufferView":26,
			"componentType":5126,
			"count":320,
			"type":"VEC2"
		},
		{
			"bufferView":27,
			"componentType":5126,
			"count":320,
			"max":[
				1.0023372173309326,
				-0.592006266117096,
				1.817372441291809
			],
			"min":[
				0.8700889348983765,
				-0.641674280166626,
				1.6851240396499634
			],
			"type":"VEC3"
		},
		{
			"bufferView":28,
			"componentType":5126,
			"count":320,
			"type":"VEC3"
		},
		{
			"bufferView":29,
			"componentType":5126,
			"count":320,
			"type":"VEC2"
		},
		{
			"bufferView":30,
			"componentType":5126,
			"count":320,
			"max":[
				-0.8953293561935425,
				-0.592006266117096,
				1.817372441291809
			],
			"min":[
				-1.0275777578353882,
				-0.641674280166626,
				1.6851240396499634
			],
			"type":"VEC3"
		},
		{
			"bufferView":31,
			"componentType":5126,
			"count":320,
			"type":"VEC3"
		},
		{
			"bufferView":32,
			"componentType":5126,
			"count":320,
			"type":"VEC2"
		},
		{
			"bufferView":33,
			"componentType":5126,
			"count":561,
			"max":[
				1.2257994413375854,
				1.069839358329773,
				1.565195083618164
			],
			"min":[
				0.39287030696868896,
				1.069839358329773,
				0.9508814811706543
			],
			"type":"VEC3"
		},
		{
			"bufferView":34,
			"componentType":5126,
			"count":561,
			"type":"VEC3"
		},
		{
			"bufferView":35,
			"componentType":5126,
			"count":561,
			"type":"VEC2"
		},
		{
			"bufferView":36,
			"componentType":5123,
			"count":3072,
			"type":"SCALAR"
		},
		{
			"bufferView":37,
			"componentType":5126,
			"count":24,
			"max":[
				0.62428218126297,
				1.1089355945587158,
				1.0512884855270386
			],
			"min":[
				0.37724819779396057,
				1.065438985824585,
				0.8042544722557068
			],
			"type":"VEC3"
		},
		{
			"bufferView":38,
			"componentType":5126,
			"count":24,
			"type":"VEC3"
		},
		{
			"bufferView":39,
			"componentType":5126,
			"count":24,
			"type":"VEC2"
		},
		{
			"bufferView":40,
			"componentType":5123,
			"count":36,
			"type":"SCALAR"
		},
		{
			"bufferView":41,
			"componentType":5126,
			"count":24,
			"max":[
				1.0151562690734863,
				1.07041597366333,
				1.2162952423095703
			],
			"min":[
				0.7521874308586121,
				1.0662267208099365,
				0.9533262848854065
			],
			"type":"VEC3"
		},
		{
			"bufferView":42,
			"componentType":5126,
			"count":24,
			"type":"VEC3"
		},
		{
			"bufferView":43,
			"componentType":5126,
			"count":24,
			"type":"VEC2"
		},
		{
			"bufferView":44,
			"componentType":5123,
			"count":36,
			"type":"SCALAR"
		}
	],
	"bufferViews":[
		{
			"buffer":0,
			"byteLength":1248,
			"byteOffset":0,
			"target":34962
		},
		{
			"buffer":0,
			"byteLength":1248,
			"byteOffset":1248,
			"target":34962
		},
		{
			"buffer":0,
			"byteLength":832,
			"byteOffset":2496,
			"target":34962
		},
		{
			"buffer":0,
			"byteLength":1164,
			"byteOffset":3328,
			"target":34963
		},
		{
			"buffer":0,
			"byteLength":5940,
			"byteOffset":4492,
			"target":34962
		},
		{
			"buffer":0,
			"byteLength":5940,
			"byteOffset":10432,
			"target":34962
		},
		{
			"buffer":0,
			"byteLength":3960,
			"byteOffset":16372,
			"target":34962
		},
		{
			"buffer":0,
			"byteLength":5448,
			"byteOffset":20332,
			"target":34963
		},
		{
			"buffer":0,
			"byteLength":7356,
			"byteOffset":25780,
			"target":34962
		},
		{
			"buffer":0,
			"byteLength":7356,
			"byteOffset":33136,
			"target":34962
		},
		{
			"buffer":0,
			"byteLength":4904,
			"byteOffset":40492,
			"target":34962
		},
		{
			"buffer":0,
			"byteLength":4632,
			"byteOffset":45396,
			"target":34963
		},
		{
			"buffer":0,
			"byteLength":10800,
			"byteOffset":50028,
			"target":34962
		},
		{
			"buffer":0,
			"byteLength":10800,
			"byteOffset":60828,
			"target":34962
		},
		{
			"buffer":0,
			"byteLength":7200,
			"byteOffset":71628,
			"target":34962
		},
		{
			"buffer":0,
			"byteLength":4980,
			"byteOffset":78828,
			"target":34963
		},
		{
			"buffer":0,
			"byteLength":15576,
			"byteOffset":83808,
			"target":34962
		},
		{
			"buffer":0,
			"byteLength":15576,
			"byteOffset":99384,
			"target":34962
		},
		{
			"buffer":0,
			"byteLength":10384,
			"byteOffset":114960,
			"target":34962
		},
		{
			"buffer":0,
			"byteLength":13680,
			"byteOffset":125344,
			"target":34963
		},
		{
			"buffer":0,
			"byteLength":3840,
			"byteOffset":139024,
			"target":34962
		},
		{
			"buffer":0,
			"byteLength":3840,
			"byteOffset":142864,
			"target":34962
		},
		{
			"buffer":0,
			"byteLength":2560,
			"byteOffset":146704,
			"target":34962
		},
		{
			"buffer":0,
			"byteLength":3816,
			"byteOffset":149264,
			"target":34963
		},
		{
			"buffer":0,
			"byteLength":3840,
			"byteOffset":153080,
			"target":34962
		},
		{
			"buffer":0,
			"byteLength":3840,
			"byteOffset":156920,
			"target":34962
		},
		{
			"buffer":0,
			"byteLength":2560,
			"byteOffset":160760,
			"target":34962
		},
		{
			"buffer":0,
			"byteLength":3840,
			"byteOffset":163320,
			"target":34962
		},
		{
			"buffer":0,
			"byteLength":3840,
			"byteOffset":167160,
			"target":34962
		},
		{
			"buffer":0,
			"byteLength":2560,
			"byteOffset":171000,
			"target":34962
		},
		{
			"buffer":0,
			"byteLength":3840,
			"byteOffset":173560,
			"target":34962
		},
		{
			"buffer":0,
			"byteLength":3840,
			"byteOffset":177400,
			"target":34962
		},
		{
			"buffer":0,
			"byteLength":2560,
			"byteOffset":181240,
			"target":34962
		},
		{
			"buffer":0,
			"byteLength":6732,
			"byteOffset":183800,
			"target":34962
		},
		{
			"buffer":0,
			"byteLength":6732,
			"byteOffset":190532,
			"target":34962
		},
		{
			"buffer":0,
			"byteLength":4488,
			"byteOffset":197264,
			"target":34962
		},
		{
			"buffer":0,
			"byteLength":6144,
			"byteOffset":201752,
			"target":34963
		},
		{
			"buffer":0,
			"byteLength":288,
			"byteOffset":207896,
			"target":34962
		},
		{
			"buffer":0,
			"byteLength":288,
			"byteOffset":208184,
			"target":34962
		},
		{
			"buffer":0,
			"byteLength":192,
			"byteOffset":208472,
			"target":34962
		},
		{
			"buffer":0,
			"byteLength":72,
			"byteOffset":208664,
			"target":34963
		},
		{
			"buffer":0,
			"byteLength":288,
			"byteOffset":208736,
			"target":34962
		},
		{
			"buffer":0,
			"byteLength":288,
			"byteOffset":209024,
			"target":34962
		},
		{
			"buffer":0,
			"byteLength":192,
			"byteOffset":209312,
			"target":34962
		},
		{
			"buffer":0,
			"byteLength":72,
			"byteOffset":209504,
			"target":34963
		}
	],
	"buffers":[
		{
			"byteLength":209576,
			"uri":"Desk.bin"
		}
	]
}
